<?xml version="1.0" encoding="utf-8"?><svg xmlns="http://www.w3.org/2000/svg" width="281" height="84" preserveAspectRatio="xMidYMid" xmlns:xlink="http://www.w3.org/1999/xlink" style="margin-right:-2px;display:block;background-repeat-y:initial;background-repeat-x:initial;animation-play-state:paused" ><style type="text/css" style="animation-play-state:paused" >text {
    text-anchor: middle; font-size: 52px; opacity: 0;
  }</style>


<g style="transform-origin:140.5px 42px;transform:matrix(0.65, 0, 0, 0.65, 0, 0);animation-play-state:paused" ><g transform="translate(140.5,42)" style="transform:matrix(1, 0, 0, 1, 140.5, 42);animation-play-state:paused" ><g transform="translate(0,0)" style="transform:matrix(1, 0, 0, 1, 0, 0);animation-play-state:paused" ><g class="path" style="transform-origin:-166.64px -7.87267px;transform:matrix(1.00669, 0, 0, 1.00669, 0, 0);animation-timing-function:linear;animation-play-state:paused;animation-name:breath-198f49b8-fcec-47f5-91a6-4683bd221c29;animation-iteration-count:infinite;animation-fill-mode:forwards;animation-duration:1.33333s;animation-delay:-0.806667s" ><path d="M41.28 0L26.56-23.52L11.76 0L6.24 0L23.92-28.16L7.76-56L12.80-56L26.56-32.48L40.48-56L45.52-56L29.28-28.16L46.80 0L41.28 0" fill="#d2d2cb" stroke="none" stroke-width="none" transform="translate(-193.1600341796875,20.12733449300131)" style="transform:matrix(1, 0, 0, 1, -193.16, 20.1273);fill:rgb(210, 210, 203);animation-play-state:paused" ></path></g>
<g class="path" style="transform-origin:-121.76px -7.87267px;transform:matrix(1.02015, 0, 0, 1.02015, 0, 0);animation-timing-function:linear;animation-play-state:paused;animation-name:breath-198f49b8-fcec-47f5-91a6-4683bd221c29;animation-iteration-count:infinite;animation-fill-mode:forwards;animation-duration:1.33333s;animation-delay:-0.733333s" ><path d="M86.80 0L80.40-19.60L62.16-19.60L55.92 0L51.20 0L69.12-56L73.36-56L91.60 0L86.80 0zM71.20-49.04L63.44-24L79.20-24L71.20-49.04" fill="#d2d2cb" stroke="none" stroke-width="none" transform="translate(-193.1600341796875,20.12733449300131)" style="transform:matrix(1, 0, 0, 1, -193.16, 20.1273);fill:rgb(77, 105, 93);animation-play-state:paused" ></path></g>
<g class="path" style="transform-origin:-82.96px 0.527334px;transform:matrix(1.02641, 0, 0, 1.02641, 0, 0);animation-timing-function:linear;animation-play-state:paused;animation-name:breath-198f49b8-fcec-47f5-91a6-4683bd221c29;animation-iteration-count:infinite;animation-fill-mode:forwards;animation-duration:1.33333s;animation-delay:-0.66s" ><path d="M120.72 0L121.04-4.08L121.04-4.08Q119.12-1.68 116.20-0.40L116.20-0.40L116.20-0.40Q113.28 0.88 110.32 0.88L110.32 0.88L110.32 0.88Q95.28 0.88 95.28-13.76L95.28-13.76L95.28-40.08L99.76-40.08L99.76-13.20L99.76-13.20Q99.76-8.08 102.60-5.60L102.60-5.60L102.60-5.60Q105.44-3.12 110.32-3.12L110.32-3.12L110.32-3.12Q115.12-3.12 117.88-5.56L117.88-5.56L117.88-5.56Q120.64-8 120.64-13.20L120.64-13.20L120.64-40.08L125.12-40.08L125.12 0L120.72 0" fill="#d2d2cb" stroke="none" stroke-width="none" transform="translate(-193.1600341796875,20.12733449300131)" style="transform:matrix(1, 0, 0, 1, -193.16, 20.1273);fill:rgb(131, 167, 157);animation-play-state:paused" ></path></g>
<g class="path" style="transform-origin:-54.44px -7.35266px;transform:matrix(1.01348, 0, 0, 1.01348, 0, 0);animation-timing-function:linear;animation-play-state:paused;animation-name:breath-198f49b8-fcec-47f5-91a6-4683bd221c29;animation-iteration-count:infinite;animation-fill-mode:forwards;animation-duration:1.33333s;animation-delay:-0.586667s" ><path d="M140.16 1.04L140.16 1.04Q135.68-0.24 133.68-3.04L133.68-3.04L133.68-3.04Q131.68-5.84 131.68-10.56L131.68-10.56L131.68-56L136.16-56L136.16-40.08L145.76-40.08L143.84-35.84L136.16-35.84L136.16-10.56L136.16-10.56Q136.16-4.16 141.44-2.40L141.44-2.40L140.16 1.04" fill="#d2d2cb" stroke="none" stroke-width="none" transform="translate(-193.1600341796875,20.12733449300131)" style="transform:matrix(1, 0, 0, 1, -193.16, 20.1273);fill:rgb(218, 232, 229);animation-play-state:paused" ></path></g>
<g class="path" style="transform-origin:-24.4px 0.0473347px;transform:matrix(1.00054, 0, 0, 1.00054, 0, 0);animation-timing-function:linear;animation-play-state:paused;animation-name:breath-198f49b8-fcec-47f5-91a6-4683bd221c29;animation-iteration-count:infinite;animation-fill-mode:forwards;animation-duration:1.33333s;animation-delay:-0.513333s" ><path d="M183.68-14.72L183.68-14.72Q183.68-8 180-3.60L180-3.60L180-3.60Q176.32 0.80 168.88 0.80L168.88 0.80L168.88 0.80Q161.44 0.80 157.64-3.64L157.64-3.64L157.64-3.64Q153.84-8.08 153.84-14.72L153.84-14.72L153.84-25.28L153.84-25.28Q153.84-32.88 157.72-36.92L157.72-36.92L157.72-36.92Q161.60-40.96 168.88-40.96L168.88-40.96L168.88-40.96Q175.84-40.96 179.76-36.76L179.76-36.76L179.76-36.76Q183.68-32.56 183.68-25.28L183.68-25.28L183.68-14.72zM179.20-25.28L179.20-25.28Q179.20-31.28 176.44-34.08L176.44-34.08L176.44-34.08Q173.68-36.88 168.88-36.88L168.88-36.88L168.88-36.88Q163.92-36.88 161.12-34.08L161.12-34.08L161.12-34.08Q158.32-31.28 158.32-25.28L158.32-25.28L158.32-13.92L158.32-13.92Q158.32-9.12 161.16-6.16L161.16-6.16L161.16-6.16Q164-3.20 168.88-3.20L168.88-3.20L168.88-3.20Q173.84-3.20 176.52-6.12L176.52-6.12L176.52-6.12Q179.20-9.04 179.20-13.92L179.20-13.92L179.20-25.28" fill="#d2d2cb" stroke="none" stroke-width="none" transform="translate(-193.1600341796875,20.12733449300131)" style="transform:matrix(1, 0, 0, 1, -193.16, 20.1273);fill:rgb(48, 176, 224);animation-play-state:paused" ></path></g>
<g class="path" style="transform-origin:24.36px -0.272665px;transform:matrix(0.987608, 0, 0, 0.987608, 0, 0);animation-timing-function:linear;animation-play-state:paused;animation-name:breath-198f49b8-fcec-47f5-91a6-4683bd221c29;animation-iteration-count:infinite;animation-fill-mode:forwards;animation-duration:1.33333s;animation-delay:-0.44s" ><path d="M238.08 0L238.08-27.44L238.08-27.44Q238.08-32.24 235.56-34.48L235.56-34.48L235.56-34.48Q233.04-36.72 229.04-36.72L229.04-36.72L229.04-36.72Q225.92-36.72 222.08-35.36L222.08-35.36L219.12-33.92L219.12-33.92Q220.48-31.20 220.48-27.68L220.48-27.68L220.48 0L216.08 0L216.08-27.44L216.08-27.44Q216.08-32.32 213.56-34.52L213.56-34.52L213.56-34.52Q211.04-36.72 206.96-36.72L206.96-36.72L206.96-36.72Q204.48-36.72 201.84-35.96L201.84-35.96L201.84-35.96Q199.20-35.20 197.04-34L197.04-34L197.04 0L192.56 0L192.56-40.08L197.04-40.08L196.64-37.52L196.64-37.52Q201.92-40.64 207.44-40.64L207.44-40.64L207.44-40.64Q210.32-40.64 212.84-39.68L212.84-39.68L212.84-39.68Q215.36-38.72 217.12-36.88L217.12-36.88L217.12-36.88Q218.24-37.52 220.48-38.64L220.48-38.64L220.48-38.64Q225.20-40.80 229.60-40.80L229.60-40.80L229.60-40.80Q235.28-40.80 238.88-37.32L238.88-37.32L238.88-37.32Q242.48-33.84 242.48-27.68L242.48-27.68L242.48 0L238.08 0" fill="#d2d2cb" stroke="none" stroke-width="none" transform="translate(-193.1600341796875,20.12733449300131)" style="transform:matrix(1, 0, 0, 1, -193.16, 20.1273);fill:rgb(161, 205, 229);animation-play-state:paused" ></path></g>
<g class="path" style="transform-origin:70.32px 0.207335px;transform:matrix(0.974674, 0, 0, 0.974674, 0, 0);animation-timing-function:linear;animation-play-state:paused;animation-name:breath-198f49b8-fcec-47f5-91a6-4683bd221c29;animation-iteration-count:infinite;animation-fill-mode:forwards;animation-duration:1.33333s;animation-delay:-0.366667s" ><path d="M278.88 0L278.88 0Q270.24 0.88 266.40 0.88L266.40 0.88L266.40 0.88Q258 0.88 253.04-2.24L253.04-2.24L253.04-2.24Q248.08-5.36 248.08-13.52L248.08-13.52L248.08-20.16L248.08-20.16Q248.08-28.08 253.60-30.80L253.60-30.80L253.60-30.80Q256.24-32.16 260.32-32.16L260.32-32.16L260.32-32.16Q264.08-32.16 267.92-30.92L267.92-30.92L267.92-30.92Q271.76-29.68 274.40-27.68L274.40-27.68L274.40-27.68Q274.40-32.08 271.84-34.68L271.84-34.68L271.84-34.68Q269.28-37.28 262-37.28L262-37.28L262.24-40.72L262.24-40.72Q269.92-40.72 273.56-38.28L273.56-38.28L273.56-38.28Q277.20-35.84 278.04-32.48L278.04-32.48L278.04-32.48Q278.88-29.12 278.88-23.84L278.88-23.84L278.88 0zM274.40-24.24L274.40-24.24Q271.12-25.76 267.40-26.88L267.40-26.88L267.40-26.88Q263.68-28 260.56-28L260.56-28L260.56-28Q252.48-28 252.48-19.92L252.48-19.92L252.48-12.96L252.48-12.96Q252.48-7.76 256.08-5.40L256.08-5.40L256.08-5.40Q259.68-3.04 266.32-3.04L266.32-3.04L266.32-3.04Q269.76-3.04 274.40-3.68L274.40-3.68L274.40-24.24" fill="#d2d2cb" stroke="none" stroke-width="none" transform="translate(-193.1600341796875,20.12733449300131)" style="transform:matrix(1, 0, 0, 1, -193.16, 20.1273);fill:rgb(191, 222, 238);animation-play-state:paused" ></path></g>
<g class="path" style="transform-origin:99.16px -7.35266px;transform:matrix(0.961739, 0, 0, 0.961739, 0, 0);animation-timing-function:linear;animation-play-state:paused;animation-name:breath-198f49b8-fcec-47f5-91a6-4683bd221c29;animation-iteration-count:infinite;animation-fill-mode:forwards;animation-duration:1.33333s;animation-delay:-0.293333s" ><path d="M293.76 1.04L293.76 1.04Q289.28-0.24 287.28-3.04L287.28-3.04L287.28-3.04Q285.28-5.84 285.28-10.56L285.28-10.56L285.28-56L289.76-56L289.76-40.08L299.36-40.08L297.44-35.84L289.76-35.84L289.76-10.56L289.76-10.56Q289.76-4.16 295.04-2.40L295.04-2.40L293.76 1.04" fill="#d2d2cb" stroke="none" stroke-width="none" transform="translate(-193.1600341796875,20.12733449300131)" style="transform:matrix(1, 0, 0, 1, -193.16, 20.1273);fill:rgb(188, 37, 45);animation-play-state:paused" ></path></g>
<g class="path" style="transform-origin:116.96px -33.9927px;transform:matrix(0.948804, 0, 0, 0.948804, 0, 0);animation-timing-function:linear;animation-play-state:paused;animation-name:breath-198f49b8-fcec-47f5-91a6-4683bd221c29;animation-iteration-count:infinite;animation-fill-mode:forwards;animation-duration:1.33333s;animation-delay:-0.22s" ><path d="M310.16-51.44L310.16-51.44Q309.12-51.44 308.28-52.28L308.28-52.28L308.28-52.28Q307.44-53.12 307.44-54.16L307.44-54.16L307.44-54.16Q307.44-55.20 308.24-56L308.24-56L308.24-56Q309.04-56.80 310.16-56.80L310.16-56.80L310.16-56.80Q311.28-56.80 312.04-56.04L312.04-56.04L312.04-56.04Q312.80-55.28 312.80-54.16L312.80-54.16L312.80-54.16Q312.80-53.04 312-52.24L312-52.24L312-52.24Q311.20-51.44 310.16-51.44L310.16-51.44" fill="#d2d2cb" stroke="none" stroke-width="none" transform="translate(-193.1600341796875,20.12733449300131)" style="transform:matrix(1, 0, 0, 1, -193.16, 20.1273);fill:rgb(210, 210, 203);animation-play-state:paused" ></path></g>
<g class="path" style="transform-origin:116.92px 0.0873337px;transform:matrix(0.935869, 0, 0, 0.935869, 0, 0);animation-timing-function:linear;animation-play-state:paused;animation-name:breath-198f49b8-fcec-47f5-91a6-4683bd221c29;animation-iteration-count:infinite;animation-fill-mode:forwards;animation-duration:1.33333s;animation-delay:-0.146667s" ><path d="M307.84 0L307.84-40.08L312.32-40.08L312.32 0L307.84 0" fill="#d2d2cb" stroke="none" stroke-width="none" transform="translate(-193.1600341796875,20.12733449300131)" style="transform:matrix(1, 0, 0, 1, -193.16, 20.1273);fill:rgb(77, 105, 93);animation-play-state:paused" ></path></g>
<g class="path" style="transform-origin:147.2px 0.0473347px;transform:matrix(0.922935, 0, 0, 0.922935, 0, 0);animation-timing-function:linear;animation-play-state:paused;animation-name:breath-198f49b8-fcec-47f5-91a6-4683bd221c29;animation-iteration-count:infinite;animation-fill-mode:forwards;animation-duration:1.33333s;animation-delay:-0.0733333s" ><path d="M355.28-14.72L355.28-14.72Q355.28-8 351.60-3.60L351.60-3.60L351.60-3.60Q347.92 0.80 340.48 0.80L340.48 0.80L340.48 0.80Q333.04 0.80 329.24-3.64L329.24-3.64L329.24-3.64Q325.44-8.08 325.44-14.72L325.44-14.72L325.44-25.28L325.44-25.28Q325.44-32.88 329.32-36.92L329.32-36.92L329.32-36.92Q333.20-40.96 340.48-40.96L340.48-40.96L340.48-40.96Q347.44-40.96 351.36-36.76L351.36-36.76L351.36-36.76Q355.28-32.56 355.28-25.28L355.28-25.28L355.28-14.72zM350.80-25.28L350.80-25.28Q350.80-31.28 348.04-34.08L348.04-34.08L348.04-34.08Q345.28-36.88 340.48-36.88L340.48-36.88L340.48-36.88Q335.52-36.88 332.72-34.08L332.72-34.08L332.72-34.08Q329.92-31.28 329.92-25.28L329.92-25.28L329.92-13.92L329.92-13.92Q329.92-9.12 332.76-6.16L332.76-6.16L332.76-6.16Q335.60-3.20 340.48-3.20L340.48-3.20L340.48-3.20Q345.44-3.20 348.12-6.12L348.12-6.12L348.12-6.12Q350.80-9.04 350.80-13.92L350.80-13.92L350.80-25.28" fill="#d2d2cb" stroke="none" stroke-width="none" transform="translate(-193.1600341796875,20.12733449300131)" style="transform:matrix(1, 0, 0, 1, -193.16, 20.1273);fill:rgb(131, 167, 157);animation-play-state:paused" ></path></g>
<g class="path" style="transform-origin:184.64px -0.232666px;transform:matrix(0.91, 0, 0, 0.91, 0, 0);animation-timing-function:linear;animation-play-state:paused;animation-name:breath-198f49b8-fcec-47f5-91a6-4683bd221c29;animation-iteration-count:infinite;animation-fill-mode:forwards;animation-duration:1.33333s" ><path d="M388.16 0L388.16-27.44L388.16-27.44Q388.16-32.32 385.32-34.52L385.32-34.52L385.32-34.52Q382.48-36.72 378.00-36.72L378.00-36.72L378.00-36.72Q375.28-36.72 372.48-35.96L372.48-35.96L372.48-35.96Q369.68-35.20 367.52-34L367.52-34L367.52 0L363.04 0L363.04-40.08L367.52-40.08L367.20-37.36L367.20-37.36Q369.12-39.04 372.08-39.88L372.08-39.88L372.08-39.88Q375.04-40.72 378.24-40.72L378.24-40.72L378.24-40.72Q382.64-40.72 385.76-39.28L385.76-39.28L385.76-39.28Q388.96-37.84 390.76-34.96L390.76-34.96L390.76-34.96Q392.56-32.08 392.56-27.68L392.56-27.68L392.56 0L388.16 0" fill="#d2d2cb" stroke="none" stroke-width="none" transform="translate(-193.1600341796875,20.12733449300131)" style="transform:matrix(1, 0, 0, 1, -193.16, 20.1273);fill:rgb(218, 232, 229);animation-play-state:paused" ></path></g></g></g></g></svg>